<svg xmlns="http://www.w3.org/2000/svg" width="200" height="199.997" viewBox="0 0 200 199.997"><path d="M817.688,2699.814v-17.778H800.412a82.625,82.625,0,0,0-6.636-24.771l14.962-8.641-8.893-15.4-14.968,8.641a83.776,83.776,0,0,0-18.127-18.132l8.641-14.968-15.4-8.893-8.635,14.961a82.627,82.627,0,0,0-24.768-6.635v-17.276H708.8v17.279a82.488,82.488,0,0,0-24.765,6.633l-8.644-14.961-15.4,8.893,8.646,14.971a83.571,83.571,0,0,0-18.127,18.129l-14.976-8.641-8.89,15.4,14.968,8.636a82.558,82.558,0,0,0-6.639,24.771l-17.282.006v17.778h17.279a82.8,82.8,0,0,0,6.636,24.769l-14.962,8.64,8.89,15.4,14.973-8.64a83.611,83.611,0,0,0,18.126,18.126l-8.643,14.974,15.4,8.893,8.635-14.962a82.615,82.615,0,0,0,24.768,6.633l.005,17.279h17.781v-17.275a82.494,82.494,0,0,0,24.768-6.636l8.641,14.962,15.4-8.893-8.646-14.967a83.73,83.73,0,0,0,18.135-18.127l14.968,8.635,8.893-15.4-14.962-8.635a82.6,82.6,0,0,0,6.636-24.769Zm-100,35.156a44.045,44.045,0,1,1,44.043-44.043A44.042,44.042,0,0,1,717.691,2734.97Z" transform="translate(-617.688 -2590.927)"/></svg>